<mxfile host="app.diagrams.net" modified="2023-09-18T09:11:45.548Z" agent="Mozilla/5.0 (Macintosh; Intel Mac OS X 10_15_7) AppleWebKit/605.1.15 (KHTML, like Gecko) Version/16.5.2 Safari/605.1.15" version="21.7.5" etag="mhlXiiyesT6xRLg31mK7" type="github">
  <diagram name="Page-1" id="jkr5QyYlQluqZCO6Qp0K">
    <mxGraphModel>
      <root>
        <mxCell id="0" />
        <mxCell id="1" parent="0" />
      </root>
    </mxGraphModel>
  </diagram>
</mxfile>
